<svg width="32" height="32" viewBox="0 0 32 32" fill="none" xmlns="http://www.w3.org/2000/svg">
<g clip-path="url(#clip0_49_275)">
<rect width="32" height="32" rx="5" fill="#3B8BEB"/>
<path d="M14.219 23.4963H14.2189L13.3218 23.4958H13.3217H11.9718H11.7718V23.2958V23.2341C11.7718 22.4792 11.3543 21.7648 10.677 21.3736L10.6769 21.3736C7.34853 19.4496 5.35684 15.8684 5.48004 12.0272C5.64988 6.72795 9.92035 2.32159 15.2059 1.99268L14.219 23.4963ZM14.219 23.4963H17.5198L18.4188 23.4964H19.7688H19.9688V23.2964V23.2331C19.9688 22.4801 20.3872 21.7658 21.0663 21.3725L21.1369 21.3316M14.219 23.4963L21.1369 21.3316M21.1369 21.3316L21.1371 21.3307M21.1369 21.3316L21.1371 21.3307M21.1371 21.3307C24.3027 19.4661 26.2659 16.0403 26.2678 12.3684V12.3683C26.2678 6.63575 21.6043 1.97194 15.8714 1.97194C15.6508 1.97194 15.4297 1.97868 15.2059 1.99268L21.1371 21.3307ZM13.3218 23.0958H13.322L14.219 23.0963H14.2191H17.5198L18.4188 23.0964H18.4188H19.5726C19.6187 22.274 20.0782 21.5144 20.7948 21.069L20.7954 21.0667L20.8661 21.0258C23.9498 19.2421 25.8659 15.9245 25.8678 12.3682C25.8677 6.8566 21.3833 2.37194 15.8714 2.37194C15.659 2.37194 15.4462 2.37843 15.2308 2.3919L15.2308 2.39191C10.1516 2.70794 6.04308 6.94656 5.87984 12.04L5.67994 12.0336L5.87984 12.04C5.76136 15.7338 7.67621 19.177 10.877 21.0272L13.3218 23.0958ZM13.3218 23.0958H12.1679M13.3218 23.0958H12.1679M12.1679 23.0958C12.12 22.2461 11.6332 21.4639 10.8771 21.0273L12.1679 23.0958ZM10.777 21.2004C7.51238 19.3133 5.5591 15.8011 5.67994 12.0336C5.84648 6.83724 10.036 2.51475 15.2184 2.19229M15.8714 2.17194C21.4938 2.17194 26.0678 6.74621 26.0678 12.3683C26.0659 15.996 24.1116 19.3795 20.9662 21.1989M15.1557 1.22255L15.2336 1.21771C21.6837 0.858994 27.0384 5.99974 27.0389 12.3691C27.0389 16.3416 24.8988 20.0487 21.4532 22.0412C21.013 22.2955 20.7416 22.74 20.7416 23.2326V25.1263C20.7416 26.1048 19.9451 26.9017 18.9662 26.9017H12.7729C11.794 26.9017 10.9975 26.1049 10.9975 25.1263V23.2341C10.9975 22.7405 10.7273 22.2962 10.2886 22.0427C6.71235 19.9762 4.57332 16.1292 4.70582 12.0032L4.70582 12.0032C4.88818 6.31171 9.47947 1.5753 15.1557 1.22255ZM11.9696 24.0737H11.7696L19.7684 25.1269H19.9684V25.1268V24.2737V24.0737H19.7684H11.9696Z" stroke="white" stroke-width="0.4"/>
<path d="M19.7531 28.0701H11.9856C11.7721 28.0701 11.5993 28.2431 11.5993 28.4564C11.5993 28.6697 11.7721 28.8427 11.9856 28.8427H19.7534C19.9669 28.8427 20.1397 28.6697 20.1397 28.4565L19.7531 28.0701ZM19.7531 28.0701H19.7533C19.9668 28.0701 20.1396 28.2431 20.1397 28.4564L19.7531 28.0701Z" stroke="white" stroke-width="0.4"/>
<path d="M13.8662 30.0276H17.8724C17.8724 30.0276 17.8724 30.0276 17.8724 30.0276C18.0861 30.0277 18.259 30.2008 18.259 30.4139C18.259 30.6272 18.0863 30.8002 17.8727 30.8002H13.8662C13.6527 30.8002 13.4799 30.6272 13.4799 30.4139C13.4799 30.2006 13.6527 30.0276 13.8662 30.0276Z" stroke="white" stroke-width="0.4"/>
<g clip-path="url(#clip1_49_275)">
<path d="M16.4214 15.979C16.4419 15.9583 16.4632 15.9368 16.4854 15.9144L18.1255 14.2689V14.2689C18.1813 14.2129 18.2037 14.1318 18.1844 14.0551C18.1652 13.9786 18.1071 13.9176 18.0315 13.8947C17.9559 13.8718 17.8738 13.8902 17.8152 13.9432C17.8137 13.9445 17.8109 13.9472 17.8068 13.9511L17.8065 13.9515C17.7266 14.0292 17.1729 14.5845 16.6704 15.0898L16.6703 15.0898C16.6784 15.1437 16.6822 15.1982 16.6816 15.2527C16.6758 15.5075 16.5785 15.7518 16.4074 15.9409C16.4128 15.9537 16.4165 15.9662 16.4214 15.979L16.4214 15.979Z" fill="white"/>
<path d="M17.4515 13.6859C17.5082 13.6289 17.5301 13.5462 17.5093 13.4686C17.4884 13.3911 17.4277 13.3306 17.3501 13.3099C17.2726 13.2892 17.1899 13.3113 17.1331 13.368L16.6591 13.8427C16.6971 13.955 16.7156 14.0729 16.7139 14.1915C16.7123 14.2865 16.6969 14.3809 16.6681 14.4716L17.4515 13.6859Z" fill="white"/>
<path d="M9.38768 12.7025C9.39045 12.7025 9.39317 12.7025 9.39579 12.7025V12.7026C9.48996 12.7017 9.58108 12.6694 9.65477 12.6108C9.49062 13.0663 9.59651 13.6818 9.93049 14.1935L9.93092 14.1942L11.0182 15.9271C11.1104 16.0542 11.2479 16.141 11.4023 16.1696C11.5568 16.1982 11.7162 16.1663 11.8478 16.0807L12.0108 15.9812L12.0107 15.9811C12.105 15.9236 12.1825 15.8422 12.2353 15.7452L13.6148 17.1157C13.7146 17.2375 13.8596 17.3134 14.0165 17.326C14.0351 17.3277 14.0538 17.3285 14.0725 17.3285C14.2252 17.3292 14.3724 17.2721 14.4846 17.1686L14.6233 17.0395C14.6761 16.9909 14.7216 16.9349 14.7584 16.8733L14.7987 16.9143H14.7987C14.9081 17.0201 15.0545 17.079 15.2066 17.0786C15.3588 17.0781 15.5048 17.0183 15.6135 16.9119L15.7755 16.7658C16.2238 16.3646 15.9823 16.0378 15.8331 15.8645C15.8484 15.8524 15.8635 15.8393 15.8785 15.8253L16.0375 15.6756H16.0375C16.1585 15.5644 16.2286 15.4085 16.2318 15.2441C16.2353 15.0919 16.1774 14.9447 16.071 14.8357L15.9347 14.699C15.9539 14.6845 15.9724 14.669 15.9899 14.6525L16.1074 14.5432C16.2066 14.4495 16.2632 14.3194 16.2641 14.183C16.2653 14.0143 16.1984 13.8523 16.0786 13.7336L13.4504 11.1117C13.0179 10.6693 12.581 10.3267 11.6607 10.6136L11.6562 10.609L11.7531 10.5117V10.5117C11.8387 10.4292 11.8881 10.3162 11.8904 10.1974C11.8928 10.0786 11.8479 9.96374 11.7658 9.87797L11.4091 9.51984C11.3524 9.46289 11.2696 9.44053 11.192 9.46116C11.1142 9.48183 11.0535 9.54234 11.0325 9.61991C11.0116 9.69754 11.0336 9.78041 11.0903 9.83736L11.4373 10.1912L9.39321 12.2439L8.99792 11.8506C8.94097 11.794 8.85805 11.772 8.78047 11.793C8.70289 11.814 8.64243 11.8749 8.62185 11.9525C8.60122 12.0302 8.62367 12.113 8.68067 12.1697L9.07498 12.562H9.07493C9.15621 12.6488 9.26885 12.6994 9.38772 12.7024L9.38768 12.7025ZM11.4401 11.0302C11.4703 11.0605 11.5086 11.0817 11.5504 11.0911C11.5922 11.1005 11.6358 11.0977 11.6761 11.0832C12.5016 10.7854 12.7924 11.0825 13.1306 11.4285L15.7601 14.0516C15.7932 14.0842 15.8125 14.1282 15.8141 14.1745C15.8156 14.1891 15.8106 14.2035 15.8004 14.214L15.6831 14.3233C15.6335 14.3697 15.6185 14.3835 15.549 14.3108L14.4952 13.2556C14.4384 13.1989 14.3556 13.1767 14.2781 13.1975C14.2005 13.2182 14.1399 13.2787 14.119 13.3562C14.0981 13.4338 14.1201 13.5165 14.1767 13.5735L15.7522 15.1534C15.7727 15.1757 15.7833 15.2054 15.7818 15.2357C15.7805 15.2785 15.7617 15.3189 15.7298 15.3474L15.5709 15.497C15.5549 15.5129 15.5367 15.5265 15.5169 15.5371C15.5103 15.5324 15.5042 15.527 15.4985 15.5212L15.4169 15.4394C14.8689 14.887 13.9281 13.9422 13.8217 13.839L13.8215 13.8387V13.8388C13.8173 13.8347 13.8146 13.8321 13.8131 13.8307C13.7545 13.7777 13.6724 13.7593 13.5968 13.7822C13.5212 13.8051 13.4631 13.8661 13.4439 13.9427C13.4246 14.0193 13.4469 14.1005 13.5027 14.1564L15.1739 15.833C15.3393 15.9998 15.4531 16.1148 15.4692 16.1319C15.6185 16.3024 15.6185 16.3024 15.4746 16.4312L15.3094 16.5804V16.5804C15.2614 16.6376 15.1762 16.6455 15.1186 16.5979L14.7427 16.2156H14.7426C14.7158 16.173 14.6843 16.1335 14.6488 16.098L13.0627 14.507C13.0061 14.4502 12.9235 14.4279 12.8459 14.4483C12.7684 14.4688 12.7076 14.529 12.6864 14.6063C12.6652 14.6837 12.6867 14.7665 12.743 14.8236L14.3788 16.4874C14.3894 16.5113 14.3948 16.5372 14.3947 16.5633C14.3899 16.6209 14.3616 16.674 14.3164 16.7102L14.1777 16.8395C14.1445 16.8687 14.1006 16.8826 14.0566 16.8779C14.0206 16.8762 13.987 16.8595 13.9639 16.8318C13.9572 16.8229 13.9499 16.8145 13.942 16.8066L12.0945 14.9709L11.5972 14.2124H11.5971C11.5531 14.1452 11.4765 14.1066 11.3962 14.1111C11.3159 14.1157 11.2442 14.1628 11.208 14.2345C11.1718 14.3063 11.1767 14.392 11.2208 14.4592L11.8431 15.4082V15.4082C11.8579 15.4332 11.862 15.463 11.8548 15.4911C11.8439 15.5356 11.8155 15.5738 11.7761 15.5971L11.6133 15.6965C11.5478 15.746 11.4561 15.7407 11.3968 15.6841L10.3145 13.9588C10.3129 13.9562 10.3112 13.9535 10.3094 13.9508C10.0467 13.5503 9.95657 13.0643 10.0852 12.7416H10.0852C10.1081 12.68 10.1383 12.6213 10.1752 12.5669C10.204 12.5241 10.2172 12.4727 10.2126 12.4214C10.2081 12.37 10.186 12.3218 10.1502 12.2847L10.07 12.2019L11.3386 10.928L11.4401 11.0302Z" fill="white"/>
<path d="M15.4767 18.6189H15.4774C15.5369 18.6187 15.594 18.5949 15.636 18.5528C15.6781 18.5107 15.7017 18.4536 15.7017 18.394L15.7022 17.3979C15.5622 17.4758 15.4062 17.5204 15.2462 17.5283L15.2517 18.3953C15.2521 18.4548 15.276 18.5116 15.3182 18.5535C15.3603 18.5954 15.4173 18.6189 15.4767 18.6189Z" fill="white"/>
<path d="M17.387 18.4858C17.4466 18.4858 17.5038 18.4622 17.546 18.4201C17.5882 18.3779 17.6119 18.3208 17.612 18.2612L17.6125 17.8739C17.5863 17.8758 17.5601 17.8777 17.5339 17.8777V17.8778C17.4071 17.8781 17.2811 17.8555 17.1623 17.8113L17.162 18.2608C17.1619 18.3204 17.1856 18.3777 17.2278 18.4199C17.2699 18.4621 17.3271 18.4858 17.3868 18.4859L17.387 18.4858Z" fill="white"/>
<path d="M16.4924 18.5526C16.55 18.5526 16.6054 18.5304 16.6472 18.4907C16.689 18.4511 16.7139 18.3969 16.7169 18.3393C16.717 18.3374 16.7172 18.3335 16.7173 18.3277V18.3273C16.7183 18.262 16.719 17.9703 16.7192 17.5972C16.5727 17.6404 16.4184 17.6503 16.2676 17.6263L16.2673 18.3275C16.2672 18.3862 16.2901 18.4425 16.331 18.4846C16.372 18.5266 16.4277 18.551 16.4863 18.5525C16.4883 18.5526 16.4904 18.5526 16.4924 18.5526L16.4924 18.5526Z" fill="white"/>
<path d="M16.4984 13.5354L18.4997 11.539C18.8362 11.195 19.1266 10.898 19.9523 11.1957C19.9926 11.2103 20.0362 11.2131 20.078 11.2037C20.1199 11.1943 20.1581 11.1731 20.1883 11.1427L20.2898 11.0405L21.5584 12.3144L21.4782 12.3973V12.3972C21.4423 12.4343 21.4203 12.4825 21.4157 12.5339C21.4111 12.5852 21.4243 12.6366 21.4532 12.6794C21.4901 12.7339 21.5203 12.7926 21.5432 12.8542C21.6717 13.1769 21.5816 13.6628 21.3189 14.0633C21.3171 14.0659 21.3155 14.0685 21.314 14.0712L20.2341 15.7927C20.1756 15.8525 20.0818 15.8595 20.0151 15.809L19.8524 15.7097C19.8129 15.6864 19.7845 15.6481 19.7736 15.6036C19.7663 15.5755 19.7705 15.5456 19.7853 15.5206L20.4076 14.5717C20.4516 14.5045 20.4565 14.4188 20.4203 14.347C20.3841 14.2753 20.3124 14.2282 20.2321 14.2236C20.1519 14.2191 20.0753 14.2577 20.0312 14.3249L19.5338 15.0834L17.6863 16.9192C17.6784 16.927 17.6711 16.9354 17.6645 16.9443C17.6413 16.972 17.6077 16.9887 17.5717 16.9904C17.5277 16.9951 17.4838 16.9811 17.4506 16.9519L17.3119 16.8226C17.2668 16.7865 17.2385 16.7334 17.2337 16.6758C17.2336 16.6497 17.239 16.6238 17.2495 16.5999L18.8853 14.9361C18.9416 14.879 18.9631 14.7962 18.942 14.7188C18.9207 14.6415 18.8599 14.5813 18.7824 14.5608C18.7049 14.5404 18.6223 14.5627 18.5657 14.6195L16.9794 16.2107L16.9794 16.2107C16.9439 16.2463 16.9125 16.2857 16.8856 16.3282L16.5107 16.7096C16.474 16.7437 16.4199 16.7511 16.3753 16.7282C16.302 16.862 16.2067 16.9825 16.0934 17.0847C16.2038 17.1625 16.338 17.1993 16.4726 17.1885C16.6073 17.1778 16.7339 17.1203 16.8306 17.026L16.87 16.9859C16.9068 17.0475 16.9523 17.1034 17.0052 17.1519L17.1437 17.281H17.1437C17.2559 17.3845 17.4032 17.4417 17.5559 17.441C17.5746 17.441 17.5933 17.4403 17.6119 17.4385H17.612C17.7689 17.4259 17.9139 17.35 18.0136 17.2282L19.3931 15.8577C19.446 15.9548 19.5235 16.0362 19.6178 16.0937L19.7806 16.1932V16.1932C19.9129 16.2791 20.0733 16.3106 20.2283 16.2813C20.3833 16.252 20.521 16.1641 20.6128 16.0358L21.6975 14.3067L21.6979 14.3061C22.0318 13.7945 22.1377 13.1793 21.9739 12.7239C22.0476 12.7823 22.1386 12.8144 22.2327 12.8152C22.2353 12.8152 22.2381 12.8151 22.2408 12.8151V12.815C22.3578 12.8124 22.469 12.7632 22.5497 12.6784L22.9479 12.2823L22.9478 12.2823C23.0048 12.2256 23.0273 12.1428 23.0067 12.0652C22.9861 11.9875 22.9256 11.9267 22.848 11.9057C22.7705 11.8846 22.6875 11.9066 22.6306 11.9633L22.235 12.3564L20.1815 10.308L20.5382 9.94991C20.5949 9.89296 20.6169 9.81009 20.5959 9.73246C20.575 9.65489 20.5142 9.59437 20.4365 9.5737C20.3588 9.55308 20.276 9.57544 20.2193 9.63239L19.8597 9.99365C19.7788 10.0789 19.7349 10.1926 19.7373 10.31C19.7397 10.4275 19.7882 10.5393 19.8724 10.6213L19.9723 10.7216L19.9677 10.7261C19.0476 10.4392 18.6108 10.7817 18.18 11.2223L16.1892 13.2083L16.3965 13.4151C16.4333 13.4527 16.4674 13.4929 16.4984 13.5354L16.4984 13.5354Z" fill="white"/>
<path d="M14.2369 17.7547L14.235 18.106C14.1277 18.0741 14.0139 18.0713 13.9052 18.0979L13.7186 18.1433C13.5637 18.1766 13.4276 18.268 13.3383 18.3988C13.249 18.5295 13.2133 18.6896 13.2387 18.8459L13.6932 20.8476C13.8186 21.4512 14.1821 21.9655 14.6245 22.1708H14.6245C14.5258 22.1809 14.4337 22.2253 14.3643 22.2963C14.2832 22.3811 14.2391 22.4947 14.2418 22.612L14.2392 23.1773C14.2389 23.237 14.2623 23.2943 14.3043 23.3367C14.3463 23.3791 14.4034 23.4031 14.4631 23.4034H14.4642C14.5237 23.4034 14.5807 23.3798 14.6229 23.3378C14.665 23.2959 14.6889 23.2389 14.6892 23.1794L14.6923 22.6157L17.6141 22.6064V23.1151C17.6141 23.1955 17.657 23.2697 17.7266 23.3099C17.7962 23.3501 17.882 23.3501 17.9516 23.3099C18.0212 23.2697 18.0641 23.1955 18.0641 23.1151V22.6019C18.0612 22.4855 18.0129 22.3747 17.9296 22.2933C17.8463 22.2119 17.7346 22.1661 17.6181 22.1658C17.6153 22.1658 17.6124 22.1659 17.6097 22.1659H17.4667V22.1576C18.3268 21.7057 18.3949 21.1514 18.3893 20.5316L18.3994 17.4788L18.335 17.5429C18.225 17.6534 18.0933 17.7401 17.9483 17.7974L17.9393 20.5328C17.9437 21.0178 17.9474 21.4367 17.1455 21.8148H17.1456C17.1069 21.833 17.0743 21.8619 17.0514 21.8979C17.0285 21.934 17.0164 21.9758 17.0165 22.0185L17.0167 22.1658H15.2044L15.2028 22.0493C15.2021 21.9976 15.1835 21.9477 15.1504 21.9081C15.1172 21.8684 15.0713 21.8414 15.0206 21.8315C14.9555 21.8192 14.8922 21.799 14.832 21.7714C14.5111 21.634 14.2303 21.2246 14.1331 20.7526C14.1325 20.75 14.132 20.7473 14.1314 20.7447L13.6785 18.7508C13.6779 18.6653 13.7405 18.5925 13.8251 18.5805L14.0119 18.535H14.0119C14.0567 18.5233 14.1044 18.5302 14.1441 18.5541C14.1693 18.5689 14.1875 18.5932 14.1947 18.6216L14.4248 19.7393C14.4368 19.7978 14.4716 19.849 14.5214 19.8819C14.5712 19.9147 14.6321 19.9263 14.6905 19.9143C14.749 19.9023 14.8003 19.8675 14.8331 19.8177C14.8659 19.7679 14.8776 19.707 14.8656 19.6486L14.6817 18.755L14.6879 17.5803C14.5539 17.6741 14.3992 17.7339 14.2369 17.7546L14.2369 17.7547Z" fill="white"/>
</g>
</g>
<defs>
<clipPath id="clip0_49_275">
<rect width="32" height="32" fill="white"/>
</clipPath>
<clipPath id="clip1_49_275">
<rect width="14.3998" height="14.3998" fill="white" transform="translate(8.61426 9.22852)"/>
</clipPath>
</defs>
</svg>
